<mxfile host="app.diagrams.net" modified="2024-01-29T14:12:32.707Z" agent="Mozilla/5.0 (Windows NT 10.0; Win64; x64) AppleWebKit/537.36 (KHTML, like Gecko) Chrome/120.0.0.0 Safari/537.36" etag="x6if5gcQ_7PNtCsIk64c" version="23.0.2" type="device">
  <diagram name="PaginÄƒ-1" id="uMXXqgcw5hJe-D43B22j">
    <mxGraphModel dx="1063" dy="565" grid="1" gridSize="10" guides="1" tooltips="1" connect="1" arrows="1" fold="1" page="1" pageScale="1" pageWidth="827" pageHeight="1169" math="0" shadow="0">
      <root>
        <mxCell id="0" />
        <mxCell id="1" parent="0" />
        <mxCell id="qKkB2OabkybY3TaB4Xow-1" value="users" style="sketch=0;outlineConnect=0;gradientColor=none;fontColor=#545B64;strokeColor=none;fillColor=#879196;dashed=0;verticalLabelPosition=bottom;verticalAlign=top;align=center;html=1;fontSize=12;fontStyle=0;aspect=fixed;shape=mxgraph.aws4.illustration_users;pointerEvents=1" vertex="1" parent="1">
          <mxGeometry x="40" y="520" width="90" height="90" as="geometry" />
        </mxCell>
        <mxCell id="qKkB2OabkybY3TaB4Xow-2" value="AWS Cloud" style="points=[[0,0],[0.25,0],[0.5,0],[0.75,0],[1,0],[1,0.25],[1,0.5],[1,0.75],[1,1],[0.75,1],[0.5,1],[0.25,1],[0,1],[0,0.75],[0,0.5],[0,0.25]];outlineConnect=0;gradientColor=none;html=1;whiteSpace=wrap;fontSize=12;fontStyle=0;container=1;pointerEvents=0;collapsible=0;recursiveResize=0;shape=mxgraph.aws4.group;grIcon=mxgraph.aws4.group_aws_cloud_alt;strokeColor=#232F3E;fillColor=none;verticalAlign=top;align=left;spacingLeft=30;fontColor=#232F3E;dashed=0;" vertex="1" parent="1">
          <mxGeometry x="170" y="400" width="560" height="410" as="geometry" />
        </mxCell>
        <mxCell id="qKkB2OabkybY3TaB4Xow-3" value="us-east-1&lt;br&gt;" style="points=[[0,0],[0.25,0],[0.5,0],[0.75,0],[1,0],[1,0.25],[1,0.5],[1,0.75],[1,1],[0.75,1],[0.5,1],[0.25,1],[0,1],[0,0.75],[0,0.5],[0,0.25]];outlineConnect=0;gradientColor=none;html=1;whiteSpace=wrap;fontSize=12;fontStyle=0;container=1;pointerEvents=0;collapsible=0;recursiveResize=0;shape=mxgraph.aws4.group;grIcon=mxgraph.aws4.group_region;strokeColor=#00A4A6;fillColor=none;verticalAlign=top;align=left;spacingLeft=30;fontColor=#147EBA;dashed=1;" vertex="1" parent="qKkB2OabkybY3TaB4Xow-2">
          <mxGeometry x="20" y="35" width="520" height="360" as="geometry" />
        </mxCell>
        <mxCell id="qKkB2OabkybY3TaB4Xow-7" value="" style="sketch=0;points=[[0,0,0],[0.25,0,0],[0.5,0,0],[0.75,0,0],[1,0,0],[0,1,0],[0.25,1,0],[0.5,1,0],[0.75,1,0],[1,1,0],[0,0.25,0],[0,0.5,0],[0,0.75,0],[1,0.25,0],[1,0.5,0],[1,0.75,0]];outlineConnect=0;fontColor=#232F3E;fillColor=#C925D1;strokeColor=#ffffff;dashed=0;verticalLabelPosition=bottom;verticalAlign=top;align=center;html=1;fontSize=12;fontStyle=0;aspect=fixed;shape=mxgraph.aws4.resourceIcon;resIcon=mxgraph.aws4.dynamodb;" vertex="1" parent="qKkB2OabkybY3TaB4Xow-3">
          <mxGeometry x="400" y="22.75" width="110" height="110" as="geometry" />
        </mxCell>
        <mxCell id="qKkB2OabkybY3TaB4Xow-8" value="" style="sketch=0;points=[[0,0,0],[0.25,0,0],[0.5,0,0],[0.75,0,0],[1,0,0],[0,1,0],[0.25,1,0],[0.5,1,0],[0.75,1,0],[1,1,0],[0,0.25,0],[0,0.5,0],[0,0.75,0],[1,0.25,0],[1,0.5,0],[1,0.75,0]];outlineConnect=0;fontColor=#232F3E;fillColor=#ED7100;strokeColor=#ffffff;dashed=0;verticalLabelPosition=bottom;verticalAlign=top;align=center;html=1;fontSize=12;fontStyle=0;aspect=fixed;shape=mxgraph.aws4.resourceIcon;resIcon=mxgraph.aws4.lambda;" vertex="1" parent="qKkB2OabkybY3TaB4Xow-3">
          <mxGeometry x="240" y="25.5" width="104.5" height="104.5" as="geometry" />
        </mxCell>
        <mxCell id="qKkB2OabkybY3TaB4Xow-9" value="" style="sketch=0;points=[[0,0,0],[0.25,0,0],[0.5,0,0],[0.75,0,0],[1,0,0],[0,1,0],[0.25,1,0],[0.5,1,0],[0.75,1,0],[1,1,0],[0,0.25,0],[0,0.5,0],[0,0.75,0],[1,0.25,0],[1,0.5,0],[1,0.75,0]];outlineConnect=0;fontColor=#232F3E;fillColor=#E7157B;strokeColor=#ffffff;dashed=0;verticalLabelPosition=bottom;verticalAlign=top;align=center;html=1;fontSize=12;fontStyle=0;aspect=fixed;shape=mxgraph.aws4.resourceIcon;resIcon=mxgraph.aws4.api_gateway;" vertex="1" parent="qKkB2OabkybY3TaB4Xow-3">
          <mxGeometry x="64.5" y="20" width="109" height="109" as="geometry" />
        </mxCell>
        <mxCell id="qKkB2OabkybY3TaB4Xow-10" value="" style="sketch=0;points=[[0,0,0],[0.25,0,0],[0.5,0,0],[0.75,0,0],[1,0,0],[0,1,0],[0.25,1,0],[0.5,1,0],[0.75,1,0],[1,1,0],[0,0.25,0],[0,0.5,0],[0,0.75,0],[1,0.25,0],[1,0.5,0],[1,0.75,0]];outlineConnect=0;fontColor=#232F3E;fillColor=#7AA116;strokeColor=#ffffff;dashed=0;verticalLabelPosition=bottom;verticalAlign=top;align=center;html=1;fontSize=12;fontStyle=0;aspect=fixed;shape=mxgraph.aws4.resourceIcon;resIcon=mxgraph.aws4.s3;" vertex="1" parent="qKkB2OabkybY3TaB4Xow-3">
          <mxGeometry x="130" y="270" width="58" height="58" as="geometry" />
        </mxCell>
        <mxCell id="qKkB2OabkybY3TaB4Xow-11" value="" style="sketch=0;points=[[0,0,0],[0.25,0,0],[0.5,0,0],[0.75,0,0],[1,0,0],[0,1,0],[0.25,1,0],[0.5,1,0],[0.75,1,0],[1,1,0],[0,0.25,0],[0,0.5,0],[0,0.75,0],[1,0.25,0],[1,0.5,0],[1,0.75,0]];outlineConnect=0;fontColor=#232F3E;fillColor=#8C4FFF;strokeColor=#ffffff;dashed=0;verticalLabelPosition=bottom;verticalAlign=top;align=center;html=1;fontSize=12;fontStyle=0;aspect=fixed;shape=mxgraph.aws4.resourceIcon;resIcon=mxgraph.aws4.cloudfront;" vertex="1" parent="qKkB2OabkybY3TaB4Xow-3">
          <mxGeometry x="90" y="200" width="58" height="58" as="geometry" />
        </mxCell>
        <mxCell id="qKkB2OabkybY3TaB4Xow-14" value="" style="sketch=0;points=[[0,0,0],[0.25,0,0],[0.5,0,0],[0.75,0,0],[1,0,0],[0,1,0],[0.25,1,0],[0.5,1,0],[0.75,1,0],[1,1,0],[0,0.25,0],[0,0.5,0],[0,0.75,0],[1,0.25,0],[1,0.5,0],[1,0.75,0]];outlineConnect=0;fontColor=#232F3E;fillColor=#DD344C;strokeColor=#ffffff;dashed=0;verticalLabelPosition=bottom;verticalAlign=top;align=center;html=1;fontSize=12;fontStyle=0;aspect=fixed;shape=mxgraph.aws4.resourceIcon;resIcon=mxgraph.aws4.certificate_manager_3;" vertex="1" parent="qKkB2OabkybY3TaB4Xow-3">
          <mxGeometry x="50" y="270" width="58" height="58" as="geometry" />
        </mxCell>
        <mxCell id="qKkB2OabkybY3TaB4Xow-16" value="Front-end&amp;nbsp;" style="fillColor=none;strokeColor=#5A6C86;dashed=1;verticalAlign=top;fontStyle=0;fontColor=#5A6C86;whiteSpace=wrap;html=1;" vertex="1" parent="qKkB2OabkybY3TaB4Xow-3">
          <mxGeometry x="30" y="175" width="200" height="170" as="geometry" />
        </mxCell>
        <mxCell id="qKkB2OabkybY3TaB4Xow-25" style="edgeStyle=orthogonalEdgeStyle;rounded=0;orthogonalLoop=1;jettySize=auto;html=1;exitX=0.75;exitY=1;exitDx=0;exitDy=0;exitPerimeter=0;entryX=0.584;entryY=0.015;entryDx=0;entryDy=0;entryPerimeter=0;" edge="1" parent="qKkB2OabkybY3TaB4Xow-3" source="qKkB2OabkybY3TaB4Xow-9" target="qKkB2OabkybY3TaB4Xow-16">
          <mxGeometry relative="1" as="geometry" />
        </mxCell>
        <mxCell id="qKkB2OabkybY3TaB4Xow-27" style="edgeStyle=orthogonalEdgeStyle;rounded=0;orthogonalLoop=1;jettySize=auto;html=1;exitX=0.25;exitY=0;exitDx=0;exitDy=0;entryX=0.25;entryY=1;entryDx=0;entryDy=0;entryPerimeter=0;" edge="1" parent="qKkB2OabkybY3TaB4Xow-3" source="qKkB2OabkybY3TaB4Xow-16" target="qKkB2OabkybY3TaB4Xow-9">
          <mxGeometry relative="1" as="geometry">
            <Array as="points">
              <mxPoint x="92" y="175" />
            </Array>
          </mxGeometry>
        </mxCell>
        <mxCell id="qKkB2OabkybY3TaB4Xow-28" style="edgeStyle=orthogonalEdgeStyle;rounded=0;orthogonalLoop=1;jettySize=auto;html=1;exitX=1;exitY=0.25;exitDx=0;exitDy=0;exitPerimeter=0;entryX=0;entryY=0.25;entryDx=0;entryDy=0;entryPerimeter=0;" edge="1" parent="qKkB2OabkybY3TaB4Xow-3" source="qKkB2OabkybY3TaB4Xow-9" target="qKkB2OabkybY3TaB4Xow-8">
          <mxGeometry relative="1" as="geometry">
            <Array as="points">
              <mxPoint x="174" y="52" />
            </Array>
          </mxGeometry>
        </mxCell>
        <mxCell id="qKkB2OabkybY3TaB4Xow-29" style="edgeStyle=orthogonalEdgeStyle;rounded=0;orthogonalLoop=1;jettySize=auto;html=1;exitX=0;exitY=0.75;exitDx=0;exitDy=0;exitPerimeter=0;entryX=1;entryY=0.75;entryDx=0;entryDy=0;entryPerimeter=0;" edge="1" parent="qKkB2OabkybY3TaB4Xow-3" source="qKkB2OabkybY3TaB4Xow-8" target="qKkB2OabkybY3TaB4Xow-9">
          <mxGeometry relative="1" as="geometry">
            <Array as="points">
              <mxPoint x="240" y="102" />
            </Array>
          </mxGeometry>
        </mxCell>
        <mxCell id="qKkB2OabkybY3TaB4Xow-30" style="edgeStyle=orthogonalEdgeStyle;rounded=0;orthogonalLoop=1;jettySize=auto;html=1;exitX=1;exitY=0.25;exitDx=0;exitDy=0;exitPerimeter=0;entryX=0;entryY=0.25;entryDx=0;entryDy=0;entryPerimeter=0;" edge="1" parent="qKkB2OabkybY3TaB4Xow-3" source="qKkB2OabkybY3TaB4Xow-8" target="qKkB2OabkybY3TaB4Xow-7">
          <mxGeometry relative="1" as="geometry">
            <Array as="points">
              <mxPoint x="390" y="52" />
            </Array>
          </mxGeometry>
        </mxCell>
        <mxCell id="qKkB2OabkybY3TaB4Xow-31" style="edgeStyle=orthogonalEdgeStyle;rounded=0;orthogonalLoop=1;jettySize=auto;html=1;exitX=0;exitY=0.75;exitDx=0;exitDy=0;exitPerimeter=0;entryX=1;entryY=0.75;entryDx=0;entryDy=0;entryPerimeter=0;" edge="1" parent="qKkB2OabkybY3TaB4Xow-3" source="qKkB2OabkybY3TaB4Xow-7" target="qKkB2OabkybY3TaB4Xow-8">
          <mxGeometry relative="1" as="geometry">
            <Array as="points">
              <mxPoint x="400" y="104" />
            </Array>
          </mxGeometry>
        </mxCell>
        <mxCell id="qKkB2OabkybY3TaB4Xow-32" value="update db" style="text;html=1;strokeColor=none;fillColor=none;align=center;verticalAlign=middle;whiteSpace=wrap;rounded=0;" vertex="1" parent="qKkB2OabkybY3TaB4Xow-3">
          <mxGeometry x="344.5" y="20" width="60" height="30" as="geometry" />
        </mxCell>
        <mxCell id="qKkB2OabkybY3TaB4Xow-34" value="return visitors" style="text;html=1;strokeColor=none;fillColor=none;align=center;verticalAlign=middle;whiteSpace=wrap;rounded=0;" vertex="1" parent="qKkB2OabkybY3TaB4Xow-3">
          <mxGeometry x="344.5" y="115" width="60" height="30" as="geometry" />
        </mxCell>
        <mxCell id="qKkB2OabkybY3TaB4Xow-62" style="edgeStyle=orthogonalEdgeStyle;rounded=0;orthogonalLoop=1;jettySize=auto;html=1;exitX=1;exitY=0.5;exitDx=0;exitDy=0;entryX=0;entryY=0.5;entryDx=0;entryDy=0;" edge="1" parent="1" source="qKkB2OabkybY3TaB4Xow-5" target="qKkB2OabkybY3TaB4Xow-16">
          <mxGeometry relative="1" as="geometry" />
        </mxCell>
        <mxCell id="qKkB2OabkybY3TaB4Xow-5" value="Request&lt;br&gt;alexandra-resume.com" style="text;html=1;strokeColor=none;fillColor=none;align=center;verticalAlign=middle;whiteSpace=wrap;rounded=0;fontSize=10;" vertex="1" parent="1">
          <mxGeometry x="20" y="680" width="130" height="30" as="geometry" />
        </mxCell>
        <mxCell id="qKkB2OabkybY3TaB4Xow-36" value="" style="dashed=0;outlineConnect=0;html=1;align=center;labelPosition=center;verticalLabelPosition=bottom;verticalAlign=top;shape=mxgraph.weblogos.github" vertex="1" parent="1">
          <mxGeometry x="280" y="203" width="80" height="75" as="geometry" />
        </mxCell>
        <mxCell id="qKkB2OabkybY3TaB4Xow-37" value="" style="sketch=0;outlineConnect=0;fontColor=#232F3E;gradientColor=none;fillColor=#232F3D;strokeColor=none;dashed=0;verticalLabelPosition=bottom;verticalAlign=top;align=center;html=1;fontSize=12;fontStyle=0;aspect=fixed;pointerEvents=1;shape=mxgraph.aws4.user;" vertex="1" parent="1">
          <mxGeometry x="46" y="200" width="78" height="78" as="geometry" />
        </mxCell>
        <mxCell id="qKkB2OabkybY3TaB4Xow-38" value="" style="edgeStyle=orthogonalEdgeStyle;html=1;endArrow=block;elbow=vertical;startArrow=none;endFill=1;strokeColor=#545B64;rounded=0;" edge="1" parent="1" source="qKkB2OabkybY3TaB4Xow-37">
          <mxGeometry width="100" relative="1" as="geometry">
            <mxPoint x="150" y="238.5" as="sourcePoint" />
            <mxPoint x="270" y="239" as="targetPoint" />
          </mxGeometry>
        </mxCell>
        <mxCell id="qKkB2OabkybY3TaB4Xow-39" value="Push to Github" style="text;html=1;strokeColor=none;fillColor=none;align=center;verticalAlign=middle;whiteSpace=wrap;rounded=0;" vertex="1" parent="1">
          <mxGeometry x="160" y="203" width="60" height="30" as="geometry" />
        </mxCell>
        <mxCell id="qKkB2OabkybY3TaB4Xow-41" value="" style="edgeStyle=orthogonalEdgeStyle;html=1;endArrow=block;elbow=vertical;startArrow=none;endFill=1;strokeColor=#545B64;rounded=0;entryX=0.5;entryY=0;entryDx=0;entryDy=0;" edge="1" parent="1" target="qKkB2OabkybY3TaB4Xow-53">
          <mxGeometry width="100" relative="1" as="geometry">
            <mxPoint x="380" y="240" as="sourcePoint" />
            <mxPoint x="510" y="360" as="targetPoint" />
          </mxGeometry>
        </mxCell>
        <mxCell id="qKkB2OabkybY3TaB4Xow-42" value="Github actions" style="text;html=1;strokeColor=none;fillColor=none;align=center;verticalAlign=middle;whiteSpace=wrap;rounded=0;" vertex="1" parent="1">
          <mxGeometry x="414" y="200" width="80" height="30" as="geometry" />
        </mxCell>
        <mxCell id="qKkB2OabkybY3TaB4Xow-43" value="" style="sketch=0;outlineConnect=0;fontColor=#232F3E;gradientColor=none;fillColor=#232F3D;strokeColor=none;dashed=0;verticalLabelPosition=bottom;verticalAlign=top;align=center;html=1;fontSize=12;fontStyle=0;aspect=fixed;pointerEvents=1;shape=mxgraph.aws4.user;" vertex="1" parent="1">
          <mxGeometry x="46" y="880" width="78" height="78" as="geometry" />
        </mxCell>
        <mxCell id="qKkB2OabkybY3TaB4Xow-44" value="" style="edgeStyle=orthogonalEdgeStyle;html=1;endArrow=block;elbow=vertical;startArrow=none;endFill=1;strokeColor=#545B64;rounded=0;" edge="1" parent="1">
          <mxGeometry width="100" relative="1" as="geometry">
            <mxPoint x="160" y="920" as="sourcePoint" />
            <mxPoint x="260" y="920" as="targetPoint" />
          </mxGeometry>
        </mxCell>
        <mxCell id="qKkB2OabkybY3TaB4Xow-45" value="" style="dashed=0;outlineConnect=0;html=1;align=center;labelPosition=center;verticalLabelPosition=bottom;verticalAlign=top;shape=mxgraph.weblogos.github" vertex="1" parent="1">
          <mxGeometry x="270" y="880" width="75" height="75" as="geometry" />
        </mxCell>
        <mxCell id="qKkB2OabkybY3TaB4Xow-46" value="Front-end repository&lt;br&gt;" style="text;html=1;strokeColor=none;fillColor=none;align=center;verticalAlign=middle;whiteSpace=wrap;rounded=0;" vertex="1" parent="1">
          <mxGeometry x="262.5" y="960" width="90" height="30" as="geometry" />
        </mxCell>
        <mxCell id="qKkB2OabkybY3TaB4Xow-47" value="Push to Github" style="text;html=1;strokeColor=none;fillColor=none;align=center;verticalAlign=middle;whiteSpace=wrap;rounded=0;" vertex="1" parent="1">
          <mxGeometry x="170" y="880" width="60" height="30" as="geometry" />
        </mxCell>
        <mxCell id="qKkB2OabkybY3TaB4Xow-48" value="" style="edgeStyle=orthogonalEdgeStyle;html=1;endArrow=block;elbow=vertical;startArrow=none;endFill=1;strokeColor=#545B64;rounded=0;entryX=1;entryY=0.75;entryDx=0;entryDy=0;" edge="1" parent="1" target="qKkB2OabkybY3TaB4Xow-16">
          <mxGeometry width="100" relative="1" as="geometry">
            <mxPoint x="360" y="920" as="sourcePoint" />
            <mxPoint x="460" y="920" as="targetPoint" />
            <Array as="points">
              <mxPoint x="450" y="920" />
              <mxPoint x="450" y="738" />
              <mxPoint x="440" y="738" />
            </Array>
          </mxGeometry>
        </mxCell>
        <mxCell id="qKkB2OabkybY3TaB4Xow-50" value="Github actions" style="text;html=1;strokeColor=none;fillColor=none;align=center;verticalAlign=middle;whiteSpace=wrap;rounded=0;" vertex="1" parent="1">
          <mxGeometry x="370" y="880" width="60" height="30" as="geometry" />
        </mxCell>
        <mxCell id="qKkB2OabkybY3TaB4Xow-51" value="Back-end repository&lt;br&gt;" style="text;html=1;strokeColor=none;fillColor=none;align=center;verticalAlign=middle;whiteSpace=wrap;rounded=0;" vertex="1" parent="1">
          <mxGeometry x="290" y="290" width="60" height="30" as="geometry" />
        </mxCell>
        <mxCell id="qKkB2OabkybY3TaB4Xow-58" style="edgeStyle=orthogonalEdgeStyle;rounded=0;orthogonalLoop=1;jettySize=auto;html=1;exitX=0.25;exitY=1;exitDx=0;exitDy=0;" edge="1" parent="1" source="qKkB2OabkybY3TaB4Xow-53" target="qKkB2OabkybY3TaB4Xow-9">
          <mxGeometry relative="1" as="geometry" />
        </mxCell>
        <mxCell id="qKkB2OabkybY3TaB4Xow-53" value="Terraform" style="text;html=1;strokeColor=none;fillColor=none;align=center;verticalAlign=middle;whiteSpace=wrap;rounded=0;" vertex="1" parent="1">
          <mxGeometry x="390" y="330" width="60" height="30" as="geometry" />
        </mxCell>
        <mxCell id="qKkB2OabkybY3TaB4Xow-60" style="edgeStyle=orthogonalEdgeStyle;rounded=0;orthogonalLoop=1;jettySize=auto;html=1;exitX=0.75;exitY=1;exitDx=0;exitDy=0;entryX=0.5;entryY=0;entryDx=0;entryDy=0;entryPerimeter=0;" edge="1" parent="1" source="qKkB2OabkybY3TaB4Xow-53" target="qKkB2OabkybY3TaB4Xow-7">
          <mxGeometry relative="1" as="geometry" />
        </mxCell>
        <mxCell id="qKkB2OabkybY3TaB4Xow-59" style="edgeStyle=orthogonalEdgeStyle;rounded=0;orthogonalLoop=1;jettySize=auto;html=1;exitX=0.5;exitY=1;exitDx=0;exitDy=0;" edge="1" parent="1">
          <mxGeometry relative="1" as="geometry">
            <mxPoint x="414" y="360" as="sourcePoint" />
            <mxPoint x="476.29999999999995" y="460.5" as="targetPoint" />
            <Array as="points">
              <mxPoint x="414" y="420" />
              <mxPoint x="476" y="420" />
            </Array>
          </mxGeometry>
        </mxCell>
        <mxCell id="qKkB2OabkybY3TaB4Xow-64" value="Deploy to S3 bucket" style="text;html=1;strokeColor=none;fillColor=none;align=center;verticalAlign=middle;whiteSpace=wrap;rounded=0;" vertex="1" parent="1">
          <mxGeometry x="460" y="830" width="60" height="30" as="geometry" />
        </mxCell>
        <mxCell id="qKkB2OabkybY3TaB4Xow-67" value="" style="edgeStyle=orthogonalEdgeStyle;html=1;endArrow=block;elbow=vertical;startArrow=block;startFill=1;endFill=1;strokeColor=#545B64;rounded=0;exitX=0.5;exitY=0;exitDx=0;exitDy=0;" edge="1" parent="1" source="qKkB2OabkybY3TaB4Xow-5">
          <mxGeometry width="100" relative="1" as="geometry">
            <mxPoint x="40" y="650" as="sourcePoint" />
            <mxPoint x="85" y="630" as="targetPoint" />
          </mxGeometry>
        </mxCell>
      </root>
    </mxGraphModel>
  </diagram>
</mxfile>
